# 3ds Max Wavefront OBJ Exporter v0.97b - (c)2007 guruware
# File Created: 22.01.2018 17:03:48

mtllib Basic_Lower_Torso.mtl

#
# object Object001
#

v  -6.4391 -4.9798 3.3044
v  -6.4391 -4.9798 -3.3044
v  -3.1366 -4.9798 -3.3044
v  -3.1366 -4.9798 3.3044
v  3.1366 -4.9798 -3.3044
v  3.1366 -4.9798 3.3044
v  6.4391 -4.9798 -3.3044
v  6.4391 -4.9798 3.3044
v  -2.6685 0.4946 3.3044
v  -5.4782 0.4946 3.3044
v  2.6685 0.4946 3.3044
v  5.4782 0.4946 3.3044
v  5.4782 0.4946 -3.3044
v  2.6685 0.4946 -3.3044
v  -2.6685 0.4946 -3.3044
v  -5.4782 0.4946 -3.3044
# 16 vertices

vn 0.0000 -1.0000 -0.0000
vn 0.0000 0.0000 1.0000
vn 0.9849 0.1729 -0.0000
vn 0.0000 0.0000 -1.0000
vn -0.9849 0.1729 -0.0000
vn 0.0000 1.0000 -0.0000
# 6 vertex normals

vt 1.0000 0.0000 0.0000
vt 1.0000 1.0000 0.0000
vt 0.6667 1.0000 0.0000
vt 0.6667 0.0000 0.0000
vt 0.3333 1.0000 0.0000
vt 0.3333 0.0000 0.0000
vt -0.0000 1.0000 0.0000
vt -0.0000 0.0000 0.0000
vt 0.0000 0.0000 0.0000
vt 0.3333 0.2500 0.0000
vt 0.0000 0.2500 0.0000
vt 0.6667 0.2500 0.0000
vt 1.0000 0.2500 0.0000
# 13 texture coords

g Object001
usemtl wire_224086086
s 2
f 1/1/1 2/2/1 3/3/1 4/4/1 
f 4/4/1 3/3/1 5/5/1 6/6/1 
f 6/6/1 5/5/1 7/7/1 8/8/1 
s 8
f 1/9/2 4/6/2 9/10/2 10/11/2 
f 4/6/2 6/4/2 11/12/2 9/10/2 
f 6/4/2 8/1/2 12/13/2 11/12/2 
s 16
f 8/9/3 7/1/3 13/13/3 12/11/3 
s 32
f 7/9/4 5/6/4 14/10/4 13/11/4 
f 5/6/4 3/4/4 15/12/4 14/10/4 
f 3/4/4 2/1/4 16/13/4 15/12/4 
s 64
f 2/9/5 1/1/5 10/13/5 16/11/5 
s off
f 9/10/6 11/12/6 12/13/6 13/13/6 14/10/6 15/12/6 16/13/6 10/13/6 
# 12 polygons

