# 3ds Max Wavefront OBJ Exporter v0.97b - (c)2007 guruware
# File Created: 22.01.2018 17:04:41

mtllib Basic_Upper_Arm.mtl

#
# object Object004
#

v  -1.7220 0.9831 2.3309
v  -0.0209 0.9831 2.3309
v  -0.0209 0.9831 -1.8349
v  -1.7220 0.9831 -1.8349
v  1.6802 0.9831 2.3309
v  1.6802 0.9831 -1.8349
v  3.3813 0.9831 2.3309
v  3.3813 0.9831 -1.8349
v  -1.7220 -14.4507 2.3309
v  -0.0209 -14.4507 2.3309
v  -0.0209 -6.7338 2.3309
v  -1.7220 -6.7338 2.3309
v  1.6802 -14.4507 2.3309
v  1.6802 -6.7338 2.3309
v  3.3813 -14.4507 2.3309
v  3.3813 -6.7338 2.3309
v  3.3813 -14.4507 -1.8349
v  3.3813 -6.7338 -1.8349
v  1.6802 -14.4507 -1.8349
v  1.6802 -6.7338 -1.8349
v  -0.0209 -14.4507 -1.8349
v  -0.0209 -6.7338 -1.8349
v  -1.7220 -14.4507 -1.8349
v  -1.7220 -6.7338 -1.8349
# 24 vertices

vn 0.0000 1.0000 -0.0000
vn 0.0000 0.0000 1.0000
vn 1.0000 0.0000 -0.0000
vn 0.0000 0.0000 -1.0000
vn -1.0000 0.0000 -0.0000
vn 0.0000 -1.0000 -0.0000
# 6 vertex normals

vt 0.0000 0.0000 0.0000
vt 0.3333 0.0000 0.0000
vt 0.3333 1.0000 0.0000
vt 0.0000 1.0000 0.0000
vt 0.6667 0.0000 0.0000
vt 0.6667 1.0000 0.0000
vt 1.0000 0.0000 0.0000
vt 1.0000 1.0000 0.0000
vt 0.0000 0.5000 0.0000
vt 0.3333 0.5000 0.0000
vt 0.3333 0.7500 0.0000
vt 0.0000 0.7500 0.0000
vt 0.6667 0.5000 0.0000
vt 0.6667 0.7500 0.0000
vt 1.0000 0.5000 0.0000
vt 1.0000 0.7500 0.0000
# 16 texture coords

g Object004
usemtl wire_153228153
s 4
f 1/1/1 2/2/1 3/3/1 4/4/1 
f 2/2/1 5/5/1 6/6/1 3/3/1 
f 5/5/1 7/7/1 8/8/1 6/6/1 
s 8
f 9/9/2 10/10/2 11/11/2 12/12/2 
f 10/10/2 13/13/2 14/14/2 11/11/2 
f 13/13/2 15/15/2 16/16/2 14/14/2 
f 12/12/2 11/11/2 2/3/2 1/4/2 
f 11/11/2 14/14/2 5/6/2 2/3/2 
f 14/14/2 16/16/2 7/8/2 5/6/2 
s 16
f 15/9/3 17/15/3 18/16/3 16/12/3 
f 16/12/3 18/16/3 8/8/3 7/4/3 
s 32
f 17/9/4 19/10/4 20/11/4 18/12/4 
f 19/10/4 21/13/4 22/14/4 20/11/4 
f 21/13/4 23/15/4 24/16/4 22/14/4 
f 18/12/4 20/11/4 6/3/4 8/4/4 
f 20/11/4 22/14/4 3/6/4 6/3/4 
f 22/14/4 24/16/4 4/8/4 3/6/4 
s 64
f 23/9/5 9/15/5 12/16/5 24/12/5 
f 24/12/5 12/16/5 1/8/5 4/4/5 
s off
f 9/9/6 23/9/6 21/13/6 19/10/6 17/9/6 15/9/6 13/13/6 10/10/6 
# 20 polygons

