# 3ds Max Wavefront OBJ Exporter v0.97b - (c)2007 guruware
# File Created: 22.01.2018 17:03:19

mtllib Basic_Thigh.mtl

#
# object Object003
#

v  -3.3844 0.6166 3.4532
v  -1.1281 0.6166 3.4532
v  -1.1281 0.6166 -3.4532
v  -3.3844 0.6166 -3.4532
v  1.1281 0.6166 3.4532
v  1.1281 0.6166 -3.4532
v  3.3844 0.6166 3.4532
v  3.3844 0.6166 -3.4532
v  -3.3844 -12.6187 3.4532
v  -1.1281 -12.6187 3.4532
v  1.1281 -12.6187 3.4532
v  3.3844 -12.6187 3.4532
v  3.3844 -12.6187 -3.4532
v  1.1281 -12.6187 -3.4532
v  -1.1281 -12.6187 -3.4532
v  -3.3844 -12.6187 -3.4532
# 16 vertices

vn 0.0000 1.0000 -0.0000
vn 0.0000 0.0000 1.0000
vn 1.0000 -0.0000 -0.0000
vn 0.0000 0.0000 -1.0000
vn -1.0000 0.0000 -0.0000
# 5 vertex normals

vt 0.0000 0.0000 0.0000
vt 0.3333 0.0000 0.0000
vt 0.3333 1.0000 0.0000
vt 0.0000 1.0000 0.0000
vt 0.6667 0.0000 0.0000
vt 0.6667 1.0000 0.0000
vt 1.0000 0.0000 0.0000
vt 1.0000 1.0000 0.0000
vt 0.0000 0.7500 0.0000
vt 0.3333 0.7500 0.0000
vt 0.6667 0.7500 0.0000
vt 1.0000 0.7500 0.0000
# 12 texture coords

g Object003
usemtl wire_028028177
s 4
f 1/1/1 2/2/1 3/3/1 4/4/1 
f 2/2/1 5/5/1 6/6/1 3/3/1 
f 5/5/1 7/7/1 8/8/1 6/6/1 
s 8
f 9/9/2 10/10/2 2/3/2 1/4/2 
f 10/10/2 11/11/2 5/6/2 2/3/2 
f 11/11/2 12/12/2 7/8/2 5/6/2 
s 16
f 12/9/3 13/12/3 8/8/3 7/4/3 
s 32
f 13/9/4 14/10/4 6/3/4 8/4/4 
f 14/10/4 15/11/4 3/6/4 6/3/4 
f 15/11/4 16/12/4 4/8/4 3/6/4 
s 64
f 16/9/5 9/12/5 1/8/5 4/4/5 
# 11 polygons

